<svg width="65" height="64" viewBox="0 0 65 64" fill="none" xmlns="http://www.w3.org/2000/svg">
<path d="M21.77 31.67C22.26 31.67 22.69 31.48 23.07 31.1C23.45 30.72 23.64 30.29 23.64 29.8C23.64 29.31 23.45 28.88 23.07 28.5C22.69 28.12 22.26 27.93 21.77 27.93C21.24 27.93 20.79 28.12 20.44 28.5C20.08 28.88 19.91 29.31 19.91 29.8C19.91 30.29 20.09 30.72 20.44 31.1C20.8 31.48 21.24 31.67 21.77 31.67ZM32.77 31.67C33.26 31.67 33.69 31.48 34.07 31.1C34.45 30.72 34.64 30.29 34.64 29.8C34.64 29.31 34.45 28.88 34.07 28.5C33.69 28.12 33.26 27.93 32.77 27.93C32.28 27.93 31.85 28.12 31.47 28.5C31.09 28.88 30.9 29.31 30.9 29.8C30.9 30.29 31.09 30.72 31.47 31.1C31.85 31.48 32.28 31.67 32.77 31.67ZM43.64 31.67C44.13 31.67 44.56 31.48 44.94 31.1C45.32 30.72 45.51 30.29 45.51 29.8C45.51 29.31 45.32 28.88 44.94 28.5C44.56 28.12 44.13 27.93 43.64 27.93C43.15 27.93 42.72 28.12 42.34 28.5C41.96 28.88 41.77 29.31 41.77 29.8C41.77 30.29 41.96 30.72 42.34 31.1C42.72 31.48 43.15 31.67 43.64 31.67ZM9.5 55.2V15.6C9.5 14.58 9.84 13.72 10.53 13.03C11.22 12.34 12.08 12 13.1 12H52.3C53.32 12 54.18 12.34 54.87 13.03C55.56 13.72 55.9 14.57 55.9 15.6V44.13C55.9 45.15 55.56 46.01 54.87 46.7C54.18 47.39 53.33 47.73 52.3 47.73H16.97L9.5 55.2ZM10.97 51.6L16.3 46.27H52.3C52.92 46.27 53.43 46.07 53.83 45.67C54.23 45.27 54.43 44.76 54.43 44.14V15.6C54.43 14.98 54.23 14.47 53.83 14.07C53.43 13.67 52.92 13.47 52.3 13.47H13.1C12.48 13.47 11.97 13.67 11.57 14.07C11.17 14.47 10.97 14.98 10.97 15.6V51.6Z" fill="#D0D0D0"/>
<path opacity="0.05" d="M52.2997 42.2706H16.2997L10.9697 47.6006V51.6006L16.2997 46.2706H52.2997C52.9197 46.2706 53.4297 46.0706 53.8297 45.6706C54.2297 45.2706 54.4297 44.7606 54.4297 44.1406V40.1406C54.4297 40.7606 54.2297 41.2706 53.8297 41.6706C53.4297 42.0706 52.9197 42.2706 52.2997 42.2706Z" fill="black"/>
</svg>
